<svg width="72" height="72" viewBox="0 0 72 72" fill="none" xmlns="http://www.w3.org/2000/svg">
<g clip-path="url(#clip0_2634_9961)">
<mask id="mask0_2634_9961" style="mask-type:luminance" maskUnits="userSpaceOnUse" x="0" y="0" width="72" height="72">
<path d="M72 0H0V72H72V0Z" fill="white"/>
</mask>
<g mask="url(#mask0_2634_9961)">
<mask id="mask1_2634_9961" style="mask-type:luminance" maskUnits="userSpaceOnUse" x="-1" y="-1" width="74" height="74">
<path d="M-0.25 -0.25H72.25V72.25H-0.25V-0.25Z" fill="white"/>
</mask>
<g mask="url(#mask1_2634_9961)">
<g opacity="0.269231">
<path d="M0.557167 36.2472C0.557167 55.8877 16.4791 71.8094 36.1195 71.8094C55.7599 71.8094 71.6815 55.8877 71.6815 36.2472C71.6815 16.6068 55.7599 0.685043 36.1195 0.685043C16.4791 0.685043 0.557167 16.6068 0.557167 36.2472Z" fill="url(#paint0_linear_2634_9961)"/>
</g>
<path d="M9.11641 36.0776C9.11641 50.9749 21.1933 63.0517 36.0906 63.0517C50.988 63.0517 63.0646 50.9749 63.0646 36.0776C63.0646 21.1802 50.988 9.10349 36.0906 9.10349C21.1933 9.10349 9.11641 21.1802 9.11641 36.0776Z" fill="url(#paint1_linear_2634_9961)"/>
</g>
</g>
</g>
<defs>
<linearGradient id="paint0_linear_2634_9961" x1="55.1282" y1="66.1755" x2="14.5592" y2="8.40267" gradientUnits="userSpaceOnUse">
<stop stop-color="#E25A01"/>
<stop offset="0.5" stop-color="#F09701"/>
<stop offset="1" stop-color="#FFD400"/>
</linearGradient>
<linearGradient id="paint1_linear_2634_9961" x1="50.5088" y1="58.7783" x2="19.737" y2="14.9573" gradientUnits="userSpaceOnUse">
<stop stop-color="#E25A01"/>
<stop offset="0.5" stop-color="#F09701"/>
<stop offset="1" stop-color="#FFD400"/>
</linearGradient>
<clipPath id="clip0_2634_9961">
<rect width="72" height="72" fill="white"/>
</clipPath>
</defs>
</svg>
